<svg width="82" height="82" viewBox="0 0 82 82" fill="none" xmlns="http://www.w3.org/2000/svg">
<path d="M41 57.3296C43.8021 57.3296 46.4769 56.6291 49.0243 55.228C51.4443 58.0302 52.8454 59.6223 53.2275 60.0044C49.5338 62.2971 45.4579 63.4434 41 63.4434C36.6694 63.4434 32.6573 62.2971 28.9636 60.0044C30.492 57.9665 31.8294 56.3744 32.9757 55.228C35.3957 56.6291 38.0705 57.3296 41 57.3296ZM17.8824 64.2076C24.3782 70.5761 32.0841 73.7603 41 73.7603C49.9159 73.7603 57.5581 70.5761 63.9266 64.2076C70.4224 57.7118 73.6704 50.0059 73.6704 41.09C73.6704 32.1741 70.4224 24.5319 63.9266 18.1634C57.5581 11.6676 49.9159 8.41964 41 8.41964C32.0841 8.41964 24.3782 11.6676 17.8824 18.1634C11.5139 24.5319 8.32964 32.1741 8.32964 41.09C8.32964 50.0059 11.5139 57.7118 17.8824 64.2076ZM12.1507 12.4318C20.175 4.40749 29.7915 0.395338 41 0.395338C52.2085 0.395338 61.7613 4.40749 69.6582 12.4318C77.6825 20.3287 81.6947 29.8814 81.6947 41.09C81.6947 52.2985 77.6825 61.915 69.6582 69.9393C61.7613 77.8362 52.2085 81.7846 41 81.7846C29.7915 81.7846 20.175 77.8362 12.1507 69.9393C4.25381 61.915 0.305345 52.2985 0.305345 41.09C0.305345 29.8814 4.25381 20.3287 12.1507 12.4318ZM22.2766 35.3584C21.1303 34.0847 20.5571 32.6199 20.5571 30.9641C20.5571 29.3083 21.1303 27.9072 22.2766 26.7609C23.5503 25.4872 25.0151 24.8503 26.6709 24.8503C28.3267 24.8503 29.7278 25.4872 30.8741 26.7609C32.1478 27.9072 32.7846 29.3083 32.7846 30.9641C32.7846 32.6199 32.1478 34.0847 30.8741 35.3584C29.7278 36.5047 28.3267 37.0778 26.6709 37.0778C25.0151 37.0778 23.5503 36.5047 22.2766 35.3584ZM50.9348 35.3584C49.7885 34.0847 49.2154 32.6199 49.2154 30.9641C49.2154 29.3083 49.7885 27.9072 50.9348 26.7609C52.2085 25.4872 53.6733 24.8503 55.3291 24.8503C56.9849 24.8503 58.386 25.4872 59.5323 26.7609C60.806 27.9072 61.4429 29.3083 61.4429 30.9641C61.4429 32.6199 60.806 34.0847 59.5323 35.3584C58.386 36.5047 56.9849 37.0778 55.3291 37.0778C53.6733 37.0778 52.2085 36.5047 50.9348 35.3584Z" fill="white"/>
</svg>
